<svg width="500" height="500" viewBox="0 0 500 500" fill="none" xmlns="http://www.w3.org/2000/svg">
<path d="M233.443 190.933H172.219V252.157H233.443V190.933Z" fill="black"/>
<path fill-rule="evenodd" clip-rule="evenodd" d="M154.726 57.1137V30H395.251V270.525H366.388V297.638H337.525V330H97V89.4752H125.863V57.1137H154.726ZM158.726 34H391.251V266.525H366.388V57.1137H158.726V34ZM362.388 266.525V61.1137H158.726V89.4752H337.525V266.525H362.388ZM337.525 270.525H362.388V293.638H337.525V270.525ZM333.525 266.525V93.4752H158.726V266.525H333.525ZM154.726 93.4752V270.525H333.525V293.638H129.863V93.4752H154.726ZM154.726 89.4752H129.863V61.1137H154.726V89.4752ZM333.525 326V297.638H125.863V93.4752H101V326H333.525Z" fill="black"/>
<path d="M65.0325 376.992H70.8216C72.5403 376.992 74.1184 376.742 75.5559 376.242C77.0091 375.742 78.2591 375.039 79.3059 374.133C80.3528 373.211 81.1653 372.109 81.7434 370.828C82.3216 369.547 82.6106 368.125 82.6106 366.562C82.6106 364.922 82.3216 363.445 81.7434 362.133C81.1653 360.82 80.3528 359.703 79.3059 358.781C78.2591 357.859 77.0091 357.148 75.5559 356.648C74.1184 356.148 72.5403 355.891 70.8216 355.875H59.4075V390H65.0325V376.992ZM65.0325 372.398V360.469H70.8216C71.7747 360.469 72.6263 360.625 73.3763 360.938C74.1419 361.234 74.7903 361.656 75.3216 362.203C75.8528 362.75 76.2513 363.398 76.5169 364.148C76.7981 364.883 76.9388 365.703 76.9388 366.609C76.9388 367.438 76.7981 368.203 76.5169 368.906C76.2513 369.609 75.8528 370.219 75.3216 370.734C74.7903 371.25 74.1419 371.656 73.3763 371.953C72.6263 372.234 71.7747 372.383 70.8216 372.398H65.0325ZM120.704 382.148L123.001 390H128.837L117.915 355.875H112.923L101.813 390H107.673L109.993 382.148H120.704ZM111.423 377.32L115.407 363.82L119.321 377.32H111.423ZM160.743 376.758L167.282 390H173.305V389.695L166.016 375.422C166.954 375 167.805 374.5 168.571 373.922C169.337 373.344 169.993 372.672 170.54 371.906C171.087 371.141 171.508 370.281 171.805 369.328C172.118 368.375 172.274 367.312 172.274 366.141C172.274 364.438 171.977 362.953 171.383 361.688C170.79 360.406 169.954 359.336 168.876 358.477C167.813 357.633 166.54 356.992 165.055 356.555C163.571 356.117 161.946 355.891 160.18 355.875H149.352V390H154.977V376.758H160.743ZM154.977 372.164V360.469H160.18C161.149 360.469 162.024 360.594 162.805 360.844C163.587 361.094 164.251 361.453 164.798 361.922C165.391 362.422 165.837 363.047 166.133 363.797C166.446 364.531 166.602 365.391 166.602 366.375C166.602 367.25 166.462 368.031 166.18 368.719C165.899 369.406 165.508 369.984 165.008 370.453C164.446 371 163.758 371.422 162.946 371.719C162.149 372 161.251 372.148 160.251 372.164H154.977ZM211 382.148L213.297 390H219.133L208.211 355.875H203.219L192.11 390H197.969L200.289 382.148H211ZM201.719 377.32L205.703 363.82L209.617 377.32H201.719ZM239.32 390H247.945C249.508 390 250.969 389.812 252.328 389.438C253.703 389.062 254.953 388.523 256.078 387.82C257.078 387.18 257.984 386.406 258.797 385.5C259.625 384.594 260.328 383.586 260.906 382.477C261.5 381.336 261.953 380.078 262.266 378.703C262.594 377.312 262.758 375.844 262.758 374.297V371.625C262.758 370.016 262.586 368.5 262.242 367.078C261.898 365.656 261.414 364.352 260.789 363.164C260.18 362.023 259.422 360.992 258.516 360.07C257.625 359.148 256.602 358.383 255.445 357.773C254.383 357.18 253.203 356.719 251.906 356.391C250.609 356.047 249.227 355.875 247.758 355.875H239.32V390ZM245.016 360.469H247.758C248.664 360.469 249.508 360.57 250.289 360.773C251.07 360.977 251.773 361.258 252.398 361.617C253.258 362.102 254 362.727 254.625 363.492C255.25 364.258 255.75 365.125 256.125 366.094C256.422 366.875 256.648 367.727 256.805 368.648C256.961 369.57 257.039 370.547 257.039 371.578V374.297C257.039 375.344 256.961 376.328 256.805 377.25C256.648 378.172 256.422 379.023 256.125 379.805C255.781 380.711 255.344 381.523 254.812 382.242C254.281 382.961 253.664 383.555 252.961 384.023C252.289 384.477 251.531 384.828 250.688 385.078C249.859 385.312 248.945 385.43 247.945 385.43H245.016V360.469ZM285.57 355.875V360.539H292.695V385.359H285.57V390H305.679V385.359H298.39V360.539H305.679V355.875H285.57ZM352.749 385.805L352.702 372.75H340.984V377.133H347.171L347.148 383.953C346.898 384.281 346.562 384.57 346.14 384.82C345.718 385.055 345.257 385.25 344.757 385.406C344.242 385.562 343.702 385.68 343.14 385.758C342.577 385.82 342.023 385.852 341.476 385.852C340.554 385.836 339.726 385.68 338.992 385.383C338.273 385.086 337.64 384.664 337.093 384.117C336.656 383.695 336.273 383.211 335.945 382.664C335.632 382.117 335.359 381.531 335.124 380.906C334.827 380.078 334.601 379.18 334.445 378.211C334.304 377.242 334.234 376.219 334.234 375.141V370.734C334.234 369.812 334.288 368.914 334.398 368.039C334.507 367.164 334.679 366.344 334.913 365.578C335.179 364.703 335.515 363.914 335.921 363.211C336.343 362.492 336.835 361.883 337.398 361.383C337.882 360.977 338.429 360.656 339.038 360.422C339.648 360.172 340.312 360.047 341.031 360.047C342.015 360.047 342.867 360.188 343.585 360.469C344.32 360.75 344.937 361.156 345.437 361.688C345.906 362.188 346.281 362.805 346.562 363.539C346.843 364.258 347.054 365.062 347.195 365.953H352.726C352.57 364.328 352.202 362.867 351.624 361.57C351.046 360.258 350.257 359.141 349.257 358.219C348.273 357.312 347.085 356.617 345.695 356.133C344.304 355.648 342.71 355.406 340.913 355.406C339.585 355.406 338.351 355.594 337.21 355.969C336.085 356.344 335.054 356.875 334.117 357.562C333.257 358.219 332.492 358.992 331.82 359.883C331.148 360.773 330.57 361.758 330.085 362.836C329.585 363.977 329.202 365.219 328.937 366.562C328.687 367.906 328.554 369.312 328.538 370.781V375.141C328.554 376.656 328.702 378.102 328.984 379.477C329.265 380.852 329.679 382.109 330.226 383.25C330.71 384.344 331.312 385.336 332.031 386.227C332.765 387.117 333.593 387.875 334.515 388.5C335.437 389.125 336.468 389.609 337.609 389.953C338.749 390.297 339.976 390.469 341.288 390.469C342.71 390.469 344.046 390.32 345.296 390.023C346.546 389.742 347.702 389.344 348.765 388.828C349.609 388.422 350.367 387.961 351.038 387.445C351.71 386.914 352.281 386.367 352.749 385.805ZM381.702 355.875H374.718V390H379.991V378.422L379.687 363.75L384.444 379.477H387.374L392.624 363.188L392.296 378.422V390H397.593V355.875H390.585L385.921 370.477L381.702 355.875ZM436.741 382.148L439.038 390H444.874L433.952 355.875H428.96L417.85 390H423.71L426.03 382.148H436.741ZM427.46 377.32L431.444 363.82L435.358 377.32H427.46Z" fill="black"/>
<path d="M182.469 437.879C182.153 440.586 181.151 442.678 179.463 444.154C177.787 445.619 175.555 446.352 172.766 446.352C169.743 446.352 167.317 445.268 165.489 443.1C163.672 440.932 162.764 438.031 162.764 434.398V431.938C162.764 429.559 163.186 427.467 164.03 425.662C164.885 423.857 166.092 422.475 167.651 421.514C169.209 420.541 171.014 420.055 173.065 420.055C175.784 420.055 177.963 420.816 179.604 422.34C181.245 423.852 182.2 425.949 182.469 428.633H179.077C178.784 426.594 178.145 425.117 177.161 424.203C176.188 423.289 174.823 422.832 173.065 422.832C170.909 422.832 169.215 423.629 167.985 425.223C166.766 426.816 166.157 429.084 166.157 432.025V434.504C166.157 437.281 166.737 439.49 167.897 441.131C169.057 442.771 170.68 443.592 172.766 443.592C174.641 443.592 176.077 443.17 177.073 442.326C178.08 441.471 178.748 439.988 179.077 437.879H182.469ZM207.525 439.32H196.802L194.394 446H190.914L200.687 420.406H203.64L213.431 446H209.968L207.525 439.32ZM197.822 436.543H206.523L202.164 424.572L197.822 436.543ZM226.552 435.98V446H223.177V420.406H232.616C235.417 420.406 237.608 421.121 239.19 422.551C240.784 423.98 241.581 425.873 241.581 428.229C241.581 430.713 240.802 432.629 239.243 433.977C237.696 435.312 235.475 435.98 232.581 435.98H226.552ZM226.552 433.221H232.616C234.421 433.221 235.804 432.799 236.764 431.955C237.725 431.1 238.206 429.869 238.206 428.264C238.206 426.74 237.725 425.521 236.764 424.607C235.804 423.693 234.485 423.219 232.809 423.184H226.552V433.221ZM255.809 446H252.434V420.406H255.809V446ZM285.452 423.184H277.226V446H273.868V423.184H265.659V420.406H285.452V423.184ZM308.276 439.32H297.553L295.145 446H291.664L301.438 420.406H304.391L314.182 446H310.719L308.276 439.32ZM298.573 436.543H307.274L302.914 424.572L298.573 436.543ZM327.32 443.24H339.449V446H323.927V420.406H327.32V443.24Z" fill="black"/>
</svg>
